# xmcd CD database file
#
# Track frame offsets:
#	150
#	17850
#	41326
#	63374
#	92155
#	113544
#	135398
#	158056
#	190851
#	217132
#	252758
#	270309
#
# Disc length: 3889 seconds
#
# Revision: 0
# Processed by: cddbd v1.5.2PL0 Copyright (c) Steve Scherf et al.
# Submitted via: CDex 1.79
#
DISCID=9a0f2f0c
DTITLE=Various Performers - Venus Jazz Lounge ~ Relaxin' Afternoon Tea Time [CD2]
DYEAR=2012
DGENRE=Jazz
TTITLE0=Cleopatra's Dream - Kenny Barron Trio
TTITLE1=Autumn Leaves - Scott Hamilton and Ken Peplowski
TTITLE2=Day In Day Out - Sally Night
TTITLE3=My Favorite Things - Dick Hyman Trio
TTITLE4=Let Me Be Good To You - Alexis Cole
TTITLE5=Around The World - Cedar Walton Trio
TTITLE6=Dance With Me - Tessa Souter
TTITLE7=You've Changed - Brian Lynch Afro Cuban Jazz Orchestra
TTITLE8=Blue Bossa - Harold Mabern Trio
TTITLE9=Lullaby Of Birdland - Francesco Cafiso New York Quartet
TTITLE10=Freedom Jazz Dance - Adela Dalto
TTITLE11=Beautiful Friendship - Monty Alexander Trio
EXTD=YEAR: 2012
EXTT0=
EXTT1=
EXTT2=
EXTT3=
EXTT4=
EXTT5=
EXTT6=
EXTT7=
EXTT8=
EXTT9=
EXTT10=
EXTT11=
PLAYORDER=
